<svg width="88" height="88" viewBox="0 0 88 88" fill="none" xmlns="http://www.w3.org/2000/svg">
<g filter="url(#filter0_d_273_1550)">
<g filter="url(#filter1_b_273_1550)">
<circle cx="44" cy="40" r="40" fill="#00B2FF"/>
</g>
<path d="M61.1579 46.4466C58.9837 46.1782 56.8248 45.7977 54.6898 45.3065C54.1686 45.1322 53.6112 45.0955 53.0717 45.1999C52.5321 45.3042 52.0286 45.5462 51.6098 45.9023C51.0657 46.4569 49.4949 48.0079 47.8625 49.6102C42.0138 46.7338 37.2837 41.998 34.4131 36.1444C36.0044 34.5113 37.4931 32.95 38.0988 32.4056C38.4547 31.9867 38.6966 31.483 38.8009 30.9431C38.9052 30.4033 38.8685 29.8457 38.6943 29.3242C38.2027 27.185 37.8224 25.0216 37.5547 22.843C37.526 22.5655 37.4412 22.2968 37.3053 22.0533C37.1695 21.8097 36.9855 21.5964 36.7645 21.4263C36.5436 21.2562 36.2903 21.1329 36.0202 21.0639C35.7501 20.9949 35.4687 20.9816 35.1933 21.0249H26.4461C26.085 21.0575 25.747 21.2165 25.4916 21.4739C25.2362 21.7314 25.0798 22.0706 25.0498 22.4321C24.4851 30.3308 28.8896 38.7842 29.7828 40.4071V40.4687L29.906 40.7049C33.1034 46.253 37.7072 50.8589 43.2527 54.0578L43.7044 54.3145C45.7578 55.4033 53.9198 59.5119 61.548 58.9469C61.913 58.9216 62.257 58.7671 62.5185 58.5112C62.78 58.2552 62.9418 57.9145 62.9751 57.55V48.8091C63.0184 48.5335 63.0051 48.2521 62.9362 47.9818C62.8672 47.7116 62.7439 47.4582 62.5739 47.2372C62.4039 47.0161 62.1907 46.832 61.9472 46.6961C61.7038 46.5602 61.4352 46.4753 61.1579 46.4466Z" fill="#001861" stroke="#001861" stroke-linecap="round" stroke-linejoin="round"/>
</g>
<defs>
<filter id="filter0_d_273_1550" x="0" y="0" width="88" height="88" filterUnits="userSpaceOnUse" color-interpolation-filters="sRGB">
<feFlood flood-opacity="0" result="BackgroundImageFix"/>
<feColorMatrix in="SourceAlpha" type="matrix" values="0 0 0 0 0 0 0 0 0 0 0 0 0 0 0 0 0 0 127 0" result="hardAlpha"/>
<feOffset dy="4"/>
<feGaussianBlur stdDeviation="2"/>
<feComposite in2="hardAlpha" operator="out"/>
<feColorMatrix type="matrix" values="0 0 0 0 0 0 0 0 0 0 0 0 0 0 0 0 0 0 0.25 0"/>
<feBlend mode="normal" in2="BackgroundImageFix" result="effect1_dropShadow_273_1550"/>
<feBlend mode="normal" in="SourceGraphic" in2="effect1_dropShadow_273_1550" result="shape"/>
</filter>
<filter id="filter1_b_273_1550" x="0" y="-4" width="88" height="88" filterUnits="userSpaceOnUse" color-interpolation-filters="sRGB">
<feFlood flood-opacity="0" result="BackgroundImageFix"/>
<feGaussianBlur in="BackgroundImage" stdDeviation="2"/>
<feComposite in2="SourceAlpha" operator="in" result="effect1_backgroundBlur_273_1550"/>
<feBlend mode="normal" in="SourceGraphic" in2="effect1_backgroundBlur_273_1550" result="shape"/>
</filter>
</defs>
</svg>
