<svg width="25" height="25" viewBox="0 0 25 25" fill="none" xmlns="http://www.w3.org/2000/svg">
<path fill-rule="evenodd" clip-rule="evenodd" d="M9.672 13.7451L12.502 15.5511L15.23 13.7945L21.345 19.4253C21.184 19.4739 21.012 19.5 20.833 19.5H4.167C3.947 19.5 3.737 19.4599 3.544 19.388L9.672 13.7451ZM22.5 9.1176V17.9441C22.5 18.1747 22.446 18.3931 22.35 18.59L16.356 13.0703L22.5 9.1176ZM2.5 9.16707L8.542 13.0236L2.606 18.4911C2.5357 18.3162 2.49979 18.1309 2.5 17.9441V9.168V9.16707ZM20.833 5.5C21.753 5.5 22.5 6.19627 22.5 7.05587V7.6028L12.498 14.0381L2.5 7.656V7.05587C2.5 6.1972 3.246 5.5 4.167 5.5H20.833Z" fill="white"/>
</svg>
