<svg width="81" height="80" viewBox="0 0 81 80" fill="none" xmlns="http://www.w3.org/2000/svg">
<path d="M49.8333 72.6667H47.5C47.5 73.1 47.6207 73.5248 47.8485 73.8934C48.0763 74.262 48.4023 74.5599 48.7898 74.7537C49.1774 74.9474 49.6113 75.0295 50.0429 74.9906C50.4745 74.9517 50.8867 74.7933 51.2333 74.5333L49.8333 72.6667ZM59.1667 65.6667L60.5667 63.8C60.1628 63.4971 59.6715 63.3333 59.1667 63.3333C58.6618 63.3333 58.1706 63.4971 57.7667 63.8L59.1667 65.6667ZM68.5 72.6667L67.1 74.5333C67.4467 74.7933 67.8589 74.9517 68.2905 74.9906C68.722 75.0295 69.1559 74.9474 69.5435 74.7537C69.9311 74.5599 70.257 74.262 70.4848 73.8934C70.7127 73.5248 70.8333 73.1 70.8333 72.6667H68.5ZM59.1667 56.3333C56.0725 56.3333 53.105 55.1042 50.9171 52.9162C48.7292 50.7283 47.5 47.7609 47.5 44.6667H42.8333C42.8333 48.9985 44.5542 53.153 47.6173 56.2161C50.6804 59.2792 54.8348 61 59.1667 61V56.3333ZM70.8333 44.6667C70.8333 47.7609 69.6042 50.7283 67.4162 52.9162C65.2283 55.1042 62.2609 56.3333 59.1667 56.3333V61C63.4985 61 67.653 59.2792 70.7161 56.2161C73.7792 53.153 75.5 48.9985 75.5 44.6667H70.8333ZM59.1667 33C62.2609 33 65.2283 34.2292 67.4162 36.4171C69.6042 38.605 70.8333 41.5725 70.8333 44.6667H75.5C75.5 40.3348 73.7792 36.1803 70.7161 33.1173C67.653 30.0542 63.4985 28.3333 59.1667 28.3333V33ZM59.1667 28.3333C54.8348 28.3333 50.6804 30.0542 47.6173 33.1173C44.5542 36.1803 42.8333 40.3348 42.8333 44.6667H47.5C47.5 41.5725 48.7292 38.605 50.9171 36.4171C53.105 34.2292 56.0725 33 59.1667 33V28.3333ZM47.5 54V72.6667H52.1667V54H47.5ZM51.2333 74.5333L60.5667 67.5333L57.7667 63.8L48.4333 70.8L51.2333 74.5333ZM57.7667 67.5333L67.1 74.5333L69.9 70.8L60.5667 63.8L57.7667 67.5333ZM70.8333 72.6667V54H66.1667V72.6667H70.8333ZM75.5 28.3333V12H70.8333V28.3333H75.5ZM68.5 5H12.5V9.66667H68.5V5ZM5.5 12V68H10.1667V12H5.5ZM12.5 75H42.8333V70.3333H12.5V75ZM5.5 68C5.5 69.8565 6.2375 71.637 7.55025 72.9497C8.86301 74.2625 10.6435 75 12.5 75V70.3333C11.8812 70.3333 11.2877 70.0875 10.8501 69.6499C10.4125 69.2123 10.1667 68.6188 10.1667 68H5.5ZM12.5 5C10.6435 5 8.86301 5.7375 7.55025 7.05025C6.2375 8.36301 5.5 10.1435 5.5 12H10.1667C10.1667 11.3812 10.4125 10.7877 10.8501 10.3501C11.2877 9.9125 11.8812 9.66667 12.5 9.66667V5ZM75.5 12C75.5 10.1435 74.7625 8.36301 73.4497 7.05025C72.137 5.7375 70.3565 5 68.5 5V9.66667C69.1188 9.66667 69.7123 9.9125 70.1499 10.3501C70.5875 10.7877 70.8333 11.3812 70.8333 12H75.5ZM19.5 28.3333H42.8333V23.6667H19.5V28.3333ZM19.5 42.3333H33.5V37.6667H19.5V42.3333Z" fill="#00B2FF"/>
</svg>
