<svg width="81" height="80" viewBox="0 0 81 80" fill="none" xmlns="http://www.w3.org/2000/svg">
<path d="M40.5 10L8 17.5V22.5L40.5 15L73 22.5V17.5L40.5 10ZM25.5 25C17.4325 25 9.5625 28.2825 9.5625 28.2825L8 28.9825V67.5H36.2025C37.0725 68.995 38.6525 70 40.5 70C42.345 70 43.9275 68.995 44.7975 67.5H73V28.985L71.4375 28.2825C71.4375 28.2825 63.5675 25 55.5 25C48.205 25 41.8 27.45 40.5 27.97C39.2 27.45 32.795 25 25.5 25ZM25.5 30C30.335 30 35.5 31.5625 38 32.4225V60.235C35.2175 59.3175 30.6475 58.0475 25.5 58.0475C20.245 58.0475 15.9675 59.2575 13 60.235V32.4225C14.925 31.725 20 30 25.5 30ZM55.5 30C61 30 66.075 31.7275 68 32.4225V60.235C65.03 59.26 60.755 58.0475 55.5 58.0475C50.3525 58.0475 45.7825 59.3175 43 60.235V32.4225C45.5 31.5625 50.665 30 55.5 30Z" fill="#00B2FF"/>
</svg>
