<svg width="107" height="80" viewBox="0 0 107 80" fill="none" xmlns="http://www.w3.org/2000/svg">
<path d="M66.5525 25.2308C66.5525 32.5602 60.6865 38.4616 53.4999 38.4616C46.3133 38.4616 40.4473 32.5602 40.4473 25.2308C40.4473 17.9014 46.3133 12 53.4999 12C60.6865 12 66.5525 17.9014 66.5525 25.2308Z" stroke="#00B2FF" stroke-width="4"/>
<path d="M77.5 64.2406C77.5 66.3758 76.9074 67.0751 76.3851 67.4065C75.6494 67.8734 74.3193 68.1002 72.0086 67.9568C70.3154 67.8518 68.3914 67.5773 66.183 67.2623C65.4508 67.1579 64.6874 67.049 63.8907 66.9403C60.7533 66.5123 57.227 66.1098 53.5 66.1098C49.773 66.1098 46.2467 66.5123 43.1093 66.9403C42.3126 67.049 41.5492 67.1579 40.817 67.2623C38.6085 67.5773 36.6846 67.8518 34.9914 67.9568C32.6807 68.1002 31.3506 67.8734 30.6149 67.4065C30.0926 67.0751 29.5 66.3758 29.5 64.2406C29.5 60.0333 31.9281 56.0216 36.2639 52.9798C40.5936 49.9422 46.6813 48 53.5 48C60.3187 48 66.4064 49.9422 70.7361 52.9798C75.0719 56.0216 77.5 60.0333 77.5 64.2406Z" stroke="#00B2FF" stroke-width="4"/>
<path d="M23.3925 22.8829C23.3925 26.7382 20.2462 29.883 16.3408 29.883C12.4354 29.883 9.28906 26.7382 9.28906 22.8829C9.28906 19.0276 12.4354 15.8828 16.3408 15.8828C20.2462 15.8828 23.3925 19.0276 23.3925 22.8829Z" stroke="#00B2FF" stroke-width="4"/>
<path d="M30.181 46.4632C30.181 47.53 29.8998 47.6386 29.8848 47.6444C29.8845 47.6446 29.8843 47.6446 29.8842 47.6447C29.6552 47.7863 29.0571 47.943 27.6622 47.8586C26.6622 47.7981 25.5312 47.641 24.1959 47.4554C23.7449 47.3927 23.2704 47.3268 22.7699 47.2602C20.8486 47.0048 18.6613 46.7606 16.3405 46.7606C14.0198 46.7606 11.8324 47.0048 9.91113 47.2602C9.4106 47.3268 8.93619 47.3927 8.48509 47.4554C7.14987 47.641 6.01884 47.7981 5.01886 47.8586C3.62392 47.943 3.02584 47.7863 2.79684 47.6447C2.79679 47.6446 2.79658 47.6446 2.79624 47.6444C2.78124 47.6386 2.5 47.5299 2.5 46.4632C2.5 44.3258 3.76568 42.1671 6.2684 40.4559C8.76141 38.7514 12.3164 37.6328 16.3405 37.6328C20.3647 37.6328 23.9196 38.7514 26.4126 40.4559C28.9154 42.1671 30.181 44.3258 30.181 46.4632Z" stroke="#00B2FF" stroke-width="4"/>
<path d="M97.7119 22.8829C97.7119 26.7382 94.5655 29.883 90.6601 29.883C86.7548 29.883 83.6084 26.7382 83.6084 22.8829C83.6084 19.0276 86.7548 15.8828 90.6601 15.8828C94.5655 15.8828 97.7119 19.0276 97.7119 22.8829Z" stroke="#00B2FF" stroke-width="4"/>
<path d="M104.5 46.4632C104.5 47.53 104.219 47.6386 104.204 47.6444C104.204 47.6446 104.204 47.6446 104.204 47.6447C103.975 47.7863 103.376 47.943 101.982 47.8586C100.982 47.7981 99.8505 47.641 98.5153 47.4554C98.0642 47.3927 97.5898 47.3268 97.0893 47.2602C95.168 47.0048 92.9806 46.7606 90.6599 46.7606C88.3391 46.7606 86.1517 47.0048 84.2305 47.2602C83.7299 47.3268 83.2555 47.3927 82.8044 47.4554C81.4692 47.641 80.3382 47.7981 79.3382 47.8586C77.9433 47.943 77.3452 47.7863 77.1162 47.6447C77.1161 47.6446 77.1159 47.6446 77.1156 47.6444C77.1006 47.6386 76.8193 47.5299 76.8193 46.4632C76.8193 44.3258 78.085 42.1671 80.5877 40.4559C83.0807 38.7514 86.6357 37.6328 90.6599 37.6328C94.684 37.6328 98.239 38.7514 100.732 40.4559C103.235 42.1671 104.5 44.3258 104.5 46.4632Z" stroke="#00B2FF" stroke-width="4"/>
</svg>
