<svg width="42" height="42" viewBox="0 0 42 42" fill="none" xmlns="http://www.w3.org/2000/svg">
<path d="M42 21C42 32.598 32.598 42 21 42C9.40202 42 0 32.598 0 21C0 9.40202 9.40202 0 21 0C32.598 0 42 9.40202 42 21Z" fill="#00B2FF"/>
<path d="M30.0305 24.393C28.8862 24.2517 27.7499 24.0514 26.6262 23.7929C26.3519 23.7012 26.0585 23.6818 25.7746 23.7368C25.4906 23.7917 25.2256 23.919 25.0052 24.1065C24.7188 24.3984 23.892 25.2147 23.0329 26.058C19.9546 24.5441 17.4651 22.0516 15.9542 18.9708C16.7918 18.1112 17.5753 17.2895 17.8941 17.003C18.0814 16.7825 18.2087 16.5173 18.2636 16.2332C18.3185 15.9491 18.2992 15.6556 18.2075 15.3812C17.9488 14.2552 17.7486 13.1166 17.6077 11.97C17.5926 11.824 17.548 11.6825 17.4765 11.5544C17.405 11.4262 17.3081 11.3139 17.1918 11.2244C17.0756 11.1348 16.9423 11.0699 16.8001 11.0336C16.6579 10.9973 16.5099 10.9903 16.3649 11.0131H11.7611C11.5711 11.0303 11.3932 11.114 11.2587 11.2494C11.1243 11.3849 11.042 11.5635 11.0262 11.7537C10.729 15.911 13.0471 20.3601 13.5172 21.2142V21.2467L13.5821 21.371C15.2649 24.291 17.688 26.7152 20.6067 28.3988L20.8444 28.534C21.9252 29.107 26.221 31.2694 30.2358 30.9721C30.4279 30.9587 30.6089 30.8774 30.7466 30.7427C30.8842 30.608 30.9694 30.4287 30.9869 30.2369V25.6364C31.0097 25.4913 31.0027 25.3432 30.9664 25.201C30.9301 25.0587 30.8652 24.9254 30.7757 24.809C30.6863 24.6927 30.574 24.5958 30.4459 24.5243C30.3178 24.4527 30.1764 24.4081 30.0305 24.393Z" fill="#001861"/>
</svg>
