<svg width="80" height="80" viewBox="0 0 80 80" fill="none" xmlns="http://www.w3.org/2000/svg">
<g filter="url(#filter0_b_273_2388)">
<circle cx="40" cy="40" r="40" fill="#00B2FF"/>
</g>
<path d="M57.1579 46.4466C54.9837 46.1782 52.8248 45.7977 50.6898 45.3065C50.1686 45.1322 49.6112 45.0955 49.0717 45.1999C48.5321 45.3042 48.0286 45.5462 47.6098 45.9023C47.0657 46.4569 45.4949 48.0079 43.8625 49.6102C38.0138 46.7338 33.2837 41.998 30.4131 36.1444C32.0044 34.5113 33.4931 32.95 34.0988 32.4056C34.4547 31.9867 34.6966 31.483 34.8009 30.9431C34.9052 30.4033 34.8685 29.8457 34.6943 29.3242C34.2027 27.185 33.8224 25.0216 33.5547 22.843C33.526 22.5655 33.4412 22.2968 33.3053 22.0533C33.1695 21.8097 32.9855 21.5964 32.7645 21.4263C32.5436 21.2562 32.2903 21.1329 32.0202 21.0639C31.7501 20.9949 31.4687 20.9816 31.1933 21.0249H22.4461C22.085 21.0575 21.747 21.2165 21.4916 21.4739C21.2362 21.7314 21.0798 22.0706 21.0498 22.4321C20.4851 30.3308 24.8896 38.7842 25.7828 40.4071V40.4687L25.906 40.7049C29.1034 46.253 33.7072 50.8589 39.2527 54.0578L39.7044 54.3145C41.7578 55.4033 49.9198 59.5119 57.548 58.9469C57.913 58.9216 58.257 58.7671 58.5185 58.5112C58.78 58.2552 58.9418 57.9145 58.9751 57.55V48.8091C59.0184 48.5335 59.0051 48.2521 58.9362 47.9818C58.8672 47.7116 58.7439 47.4582 58.5739 47.2372C58.4039 47.0161 58.1907 46.832 57.9472 46.6961C57.7038 46.5602 57.4352 46.4753 57.1579 46.4466Z" fill="#001861" stroke="#001861" stroke-linecap="round" stroke-linejoin="round"/>
<defs>
<filter id="filter0_b_273_2388" x="-4" y="-4" width="88" height="88" filterUnits="userSpaceOnUse" color-interpolation-filters="sRGB">
<feFlood flood-opacity="0" result="BackgroundImageFix"/>
<feGaussianBlur in="BackgroundImage" stdDeviation="2"/>
<feComposite in2="SourceAlpha" operator="in" result="effect1_backgroundBlur_273_2388"/>
<feBlend mode="normal" in="SourceGraphic" in2="effect1_backgroundBlur_273_2388" result="shape"/>
</filter>
</defs>
</svg>
