<svg width="25" height="25" viewBox="0 0 25 25" fill="none" xmlns="http://www.w3.org/2000/svg">
<path d="M21.5305 15.893C20.3862 15.7517 19.2499 15.5514 18.1262 15.2929C17.8519 15.2012 17.5585 15.1818 17.2746 15.2368C16.9906 15.2917 16.7256 15.419 16.5052 15.6065C16.2188 15.8984 15.392 16.7147 14.5329 17.558C11.4546 16.0441 8.96511 13.5516 7.45424 10.4708C8.29179 9.6112 9.0753 8.78949 9.39411 8.50297C9.58144 8.28248 9.70872 8.01735 9.76362 7.73323C9.81853 7.44911 9.7992 7.15562 9.70752 6.88117C9.44881 5.75524 9.24861 4.61665 9.10772 3.46998C9.09263 3.32396 9.04797 3.18255 8.97647 3.05436C8.90498 2.92616 8.80813 2.81388 8.69185 2.72435C8.57556 2.63482 8.44228 2.56992 8.3001 2.53361C8.15793 2.49729 8.00986 2.49032 7.86491 2.51312H3.26109C3.07106 2.53028 2.89317 2.61397 2.75875 2.74945C2.62432 2.88492 2.54198 3.0635 2.52621 3.25374C2.22902 7.41096 4.54714 11.8601 5.01725 12.7142V12.7467L5.08209 12.871C6.76494 15.791 9.188 18.2152 12.1067 19.8988L12.3444 20.034C13.4252 20.607 17.721 22.7694 21.7358 22.4721C21.9279 22.4587 22.1089 22.3774 22.2466 22.2427C22.3842 22.108 22.4694 21.9287 22.4869 21.7369V17.1364C22.5097 16.9913 22.5027 16.8432 22.4664 16.701C22.4301 16.5587 22.3652 16.4254 22.2757 16.309C22.1863 16.1927 22.074 16.0958 21.9459 16.0243C21.8178 15.9527 21.6764 15.9081 21.5305 15.893Z" fill="white" stroke="white" stroke-linecap="round" stroke-linejoin="round"/>
</svg>
