<svg width="16" height="16" viewBox="0 0 16 16" fill="none" xmlns="http://www.w3.org/2000/svg">
<path d="M7.99967 1.3335C9.81101 1.3335 10.037 1.34016 10.7477 1.3735C11.4577 1.40683 11.941 1.51816 12.3663 1.6835C12.8063 1.85283 13.177 2.08216 13.5477 2.45216C13.8867 2.78543 14.149 3.18856 14.3163 3.6335C14.481 4.05816 14.593 4.54216 14.6263 5.25216C14.6577 5.96283 14.6663 6.18883 14.6663 8.00016C14.6663 9.8115 14.6597 10.0375 14.6263 10.7482C14.593 11.4582 14.481 11.9415 14.3163 12.3668C14.1495 12.812 13.8871 13.2152 13.5477 13.5482C13.2143 13.887 12.8112 14.1493 12.3663 14.3168C11.9417 14.4815 11.4577 14.5935 10.7477 14.6268C10.037 14.6582 9.81101 14.6668 7.99967 14.6668C6.18834 14.6668 5.96234 14.6602 5.25167 14.6268C4.54167 14.5935 4.05834 14.4815 3.63301 14.3168C3.18789 14.1498 2.78469 13.8875 2.45167 13.5482C2.11261 13.215 1.8503 12.8118 1.68301 12.3668C1.51767 11.9422 1.40634 11.4582 1.37301 10.7482C1.34167 10.0375 1.33301 9.8115 1.33301 8.00016C1.33301 6.18883 1.33967 5.96283 1.37301 5.25216C1.40634 4.5415 1.51767 4.05883 1.68301 3.6335C1.84983 3.18828 2.11221 2.78504 2.45167 2.45216C2.78479 2.11298 3.18796 1.85065 3.63301 1.6835C4.05834 1.51816 4.54101 1.40683 5.25167 1.3735C5.96234 1.34216 6.18834 1.3335 7.99967 1.3335ZM7.99967 4.66683C7.11562 4.66683 6.26777 5.01802 5.64265 5.64314C5.01753 6.26826 4.66634 7.11611 4.66634 8.00016C4.66634 8.88422 5.01753 9.73206 5.64265 10.3572C6.26777 10.9823 7.11562 11.3335 7.99967 11.3335C8.88373 11.3335 9.73158 10.9823 10.3567 10.3572C10.9818 9.73206 11.333 8.88422 11.333 8.00016C11.333 7.11611 10.9818 6.26826 10.3567 5.64314C9.73158 5.01802 8.88373 4.66683 7.99967 4.66683ZM12.333 4.50016C12.333 4.27915 12.2452 4.06719 12.0889 3.91091C11.9326 3.75463 11.7207 3.66683 11.4997 3.66683C11.2787 3.66683 11.0667 3.75463 10.9104 3.91091C10.7541 4.06719 10.6663 4.27915 10.6663 4.50016C10.6663 4.72118 10.7541 4.93314 10.9104 5.08942C11.0667 5.2457 11.2787 5.3335 11.4997 5.3335C11.7207 5.3335 11.9326 5.2457 12.0889 5.08942C12.2452 4.93314 12.333 4.72118 12.333 4.50016ZM7.99967 6.00016C8.53011 6.00016 9.03882 6.21088 9.41389 6.58595C9.78896 6.96102 9.99967 7.46973 9.99967 8.00016C9.99967 8.5306 9.78896 9.0393 9.41389 9.41438C9.03882 9.78945 8.53011 10.0002 7.99967 10.0002C7.46924 10.0002 6.96053 9.78945 6.58546 9.41438C6.21039 9.0393 5.99967 8.5306 5.99967 8.00016C5.99967 7.46973 6.21039 6.96102 6.58546 6.58595C6.96053 6.21088 7.46924 6.00016 7.99967 6.00016Z" fill="white"/>
</svg>
