<svg width="43" height="46" viewBox="0 0 43 46" fill="none" xmlns="http://www.w3.org/2000/svg">
<path d="M41.3893 9.75913C40.678 9.21541 39.8074 8.92124 38.912 8.92213C33.5075 8.92213 32.5385 15.9616 31.3393 18.7096C31.3393 18.7096 25.7975 7.10788 23.87 3.27988C21.8825 -0.668874 17.6398 0.147126 16.397 2.29663C13.445 -0.762624 7.8673 1.70713 8.5783 5.42638C4.7503 5.13238 3.20305 8.90863 4.0528 11.3296C1.09405 11.2381 -0.288953 14.8974 0.711547 17.5171C0.763297 17.6536 6.0163 27.9916 7.4308 31.5136C7.59505 31.9224 7.7608 32.3596 7.9348 32.8201C9.07855 35.8441 10.6453 39.9856 14.5648 43.3119C16.2523 44.7436 18.5885 45.5004 21.323 45.5004C26.1425 45.5004 31.5088 43.1086 34.9948 39.4059C38.117 36.0901 39.6133 32.0199 39.3223 27.6346C39.0613 23.6926 40.3153 19.9786 41.3225 16.9936C42.4153 13.7544 43.2778 11.1954 41.3893 9.75913ZM36.929 27.5041C37.5388 36.2251 28.7975 43.5834 21.3815 43.5834C19.1158 43.5834 16.769 43.2174 15.3028 41.9731C11.0983 38.4046 10.043 33.9886 8.8243 30.9601C7.36855 27.3369 3.79555 20.3746 2.0638 16.8721C1.35505 15.4381 2.5393 12.3864 4.6018 12.3864L10.55 25.0374L12.8038 26.3904C12.8038 26.3904 7.6423 15.1419 6.00805 11.2651C5.05405 9.00163 6.69805 6.26863 8.91355 6.62488L16.298 22.3869L18.5525 23.7429L9.94555 5.56813C9.91105 2.34688 14.3188 2.29663 15.3433 4.17763C17.936 8.93863 22.8035 19.3869 22.8035 19.3869L25.0565 20.7421L16.9768 3.60988C18.5548 1.54438 21.3388 1.83388 22.5388 4.34113C23.9803 7.35238 30.0845 20.4316 30.0845 20.4316C24.0583 22.6906 19.9445 29.2389 24.2518 35.6941C20.834 28.6366 26.8888 23.6491 30.4655 22.0006C31.8193 21.3759 32.3173 20.1946 32.3173 20.1946L32.3143 20.1954C32.786 19.3411 32.7583 18.1989 33.3208 16.3501C34.5395 12.3489 36.2113 10.2286 38.6645 10.2286C39.23 10.2286 39.9425 10.6516 40.2695 11.1339C41.9218 13.5721 36.362 19.4011 36.929 27.5041Z" fill="#00B2FF"/>
</svg>
