<svg width="30" height="30" viewBox="0 0 30 30" fill="none" xmlns="http://www.w3.org/2000/svg">
<g filter="url(#filter0_b_273_1546)">
<circle cx="15" cy="15" r="15" fill="#E6E6FE" fill-opacity="0.1"/>
</g>
<path d="M15.9559 6C17.5521 6 17.8948 6.01805 18.7154 6.05416C19.6713 6.0993 20.3297 6.25276 20.8978 6.46941C21.493 6.70411 21.989 7.01103 22.494 7.50752C22.99 8.00401 23.2966 8.50953 23.5311 9.09629C23.7475 9.66499 23.9008 10.324 23.9459 11.2808C23.982 12.1655 24 12.4995 24 14.4855V15.5055C24 17.4915 23.982 17.8255 23.9459 18.7101C23.9008 19.667 23.7475 20.326 23.5311 20.8947C23.2966 21.4905 22.99 21.987 22.494 22.4925C21.989 22.998 21.493 23.3049 20.8978 23.5306C20.3297 23.7472 19.6713 23.9007 18.7154 23.9458C17.7595 23.991 17.4529 24 15.009 24H14.7475C12.5471 24 12.2224 23.991 11.3026 23.9458C10.3467 23.9007 9.68838 23.7472 9.12024 23.5306C8.52505 23.2959 8.02906 22.989 7.52405 22.4925C7.01904 21.987 6.71242 21.4905 6.48697 20.8947C6.27054 20.326 6.11723 19.667 6.07214 18.7101C6.01804 17.8977 6 17.5547 6 15.9569V14.0522C6 12.4544 6.01804 12.1113 6.05411 11.2899C6.0992 10.333 6.25251 9.67402 6.46894 9.10532C6.70341 8.51856 7.01002 8.01304 7.50601 7.51655C8.01102 7.01103 8.50701 6.70411 9.1022 6.47844C9.67936 6.24373 10.3287 6.09027 11.2936 6.05416C12.1052 6.01805 12.4569 6 14.0441 6H15.9559ZM15.2615 7.62487H14.7385C12.5741 7.62487 12.2766 7.6339 11.3567 7.67904C10.482 7.71515 10.013 7.85958 9.68838 7.98596C9.26453 8.14845 8.96693 8.34704 8.6513 8.66299C8.34469 8.96991 8.14629 9.27683 7.98397 9.69208C7.85772 10.0171 7.71343 10.4865 7.66834 11.3711C7.63226 12.319 7.62325 12.5988 7.62325 15.009C7.62325 17.4193 7.63226 17.6991 7.67735 18.6469C7.71343 19.5226 7.86673 20.001 7.98397 20.317C8.14629 20.7412 8.34469 21.0391 8.66032 21.3551C8.97595 21.671 9.27355 21.8606 9.6974 22.0321C10.013 22.1585 10.491 22.3029 11.3657 22.339C12.3126 22.3751 12.6012 22.3932 15 22.3932H15.2615C17.4259 22.3932 17.7234 22.3842 18.6433 22.339C19.518 22.3029 19.996 22.1494 20.3116 22.0321C20.7355 21.8696 21.0331 21.671 21.3487 21.3551C21.6643 21.0391 21.8537 20.7412 22.0251 20.317C22.1513 20.001 22.2956 19.5226 22.3317 18.6469C22.3677 17.6991 22.3858 17.4102 22.3858 15.009V14.7472C22.3858 12.5807 22.3768 12.2828 22.3317 11.3621C22.2956 10.4865 22.1423 10.008 22.0251 9.69208C21.8627 9.2678 21.6643 8.96991 21.3487 8.65396C21.0331 8.33801 20.7355 8.14845 20.3116 7.97693C19.996 7.85055 19.518 7.70612 18.6433 7.67001C17.6874 7.62487 17.3988 7.62487 15 7.62487H15.2615ZM15 10.3872C17.5521 10.3872 19.6172 12.4634 19.6172 15.009C19.6172 17.5547 17.5431 19.6309 15 19.6309C12.4569 19.6309 10.3828 17.5637 10.3828 15.009C10.3828 12.4544 12.4479 10.3872 15 10.3872ZM15 12.003C13.3407 12.003 11.997 13.348 11.997 15.009C11.997 16.67 13.3407 18.015 15 18.015C16.6593 18.015 18.003 16.67 18.003 15.009C18.003 13.348 16.6593 12.003 15 12.003ZM19.8066 9.12337C20.4018 9.12337 20.8888 9.61083 20.8888 10.2066C20.8888 10.8024 20.4018 11.2899 19.8066 11.2899C19.2114 11.2899 18.7244 10.8024 18.7244 10.2066C18.7244 9.60181 19.2114 9.12337 19.8066 9.12337Z" fill="#00B2FF"/>
<defs>
<filter id="filter0_b_273_1546" x="-4" y="-4" width="38" height="38" filterUnits="userSpaceOnUse" color-interpolation-filters="sRGB">
<feFlood flood-opacity="0" result="BackgroundImageFix"/>
<feGaussianBlur in="BackgroundImage" stdDeviation="2"/>
<feComposite in2="SourceAlpha" operator="in" result="effect1_backgroundBlur_273_1546"/>
<feBlend mode="normal" in="SourceGraphic" in2="effect1_backgroundBlur_273_1546" result="shape"/>
</filter>
</defs>
</svg>
