<svg width="116" height="56" viewBox="0 0 116 56" fill="none" xmlns="http://www.w3.org/2000/svg">
<path d="M8.08165 47.1404C7.92017 46.9682 7.73178 46.8162 7.51648 46.6845C7.30118 46.5426 7.05896 46.4211 6.78983 46.3198C6.52071 46.2184 6.23005 46.1374 5.91786 46.0766C5.61644 46.0158 5.29349 45.9854 4.949 45.9854C3.94785 45.9854 3.21044 46.1678 2.73678 46.5325C2.27388 46.8871 2.04243 47.3734 2.04243 47.9914C2.04243 48.4169 2.15008 48.7513 2.36538 48.9944C2.59145 49.2376 2.94131 49.4351 3.41498 49.5871C3.88864 49.7391 4.49149 49.8961 5.22351 50.0582C6.04166 50.2203 6.74677 50.4128 7.33885 50.6357C7.93093 50.8586 8.38845 51.1625 8.7114 51.5475C9.03436 51.9223 9.19583 52.434 9.19583 53.0824C9.19583 53.5788 9.09356 54.0094 8.88903 54.3741C8.68449 54.7388 8.39922 55.0428 8.0332 55.2859C7.66719 55.5291 7.2312 55.7114 6.72524 55.833C6.21928 55.9444 5.66488 56.0002 5.06204 56.0002C4.46996 56.0002 3.89941 55.9444 3.35039 55.833C2.81213 55.7114 2.30079 55.5392 1.81636 55.3163C1.33193 55.0833 0.879799 54.7895 0.459961 54.4349L1.02513 53.5687C1.22966 53.7713 1.47188 53.9638 1.75177 54.1461C2.04243 54.3184 2.36 54.4754 2.70448 54.6173C3.05973 54.7591 3.43651 54.8705 3.83482 54.9516C4.24389 55.0225 4.66373 55.058 5.09433 55.058C6.00937 55.058 6.71986 54.9009 7.22582 54.5869C7.74254 54.2728 8.00091 53.8068 8.00091 53.1887C8.00091 52.743 7.87173 52.3884 7.61336 52.125C7.355 51.8514 6.96746 51.6285 6.45073 51.4563C5.93401 51.2841 5.29887 51.1169 4.54531 50.9548C3.7487 50.7826 3.07588 50.5901 2.52686 50.3773C1.97784 50.1646 1.56338 49.886 1.28349 49.5415C1.01436 49.1869 0.879799 48.7209 0.879799 48.1434C0.879799 47.4747 1.05204 46.9124 1.39652 46.4565C1.75177 45.9905 2.2362 45.641 2.84981 45.4079C3.46342 45.1648 4.16853 45.0432 4.96515 45.0432C5.47111 45.0432 5.93939 45.0939 6.37 45.1952C6.81136 45.2864 7.21506 45.4231 7.58107 45.6055C7.95785 45.7879 8.30771 46.0158 8.63067 46.2894L8.08165 47.1404Z" fill="white"/>
<path d="M20.393 50.4381C20.393 49.7796 20.5114 49.1362 20.7482 48.5081C20.9958 47.8698 21.351 47.2924 21.8139 46.7757C22.2768 46.2488 22.8474 45.8335 23.5256 45.5295C24.2038 45.2154 24.9735 45.0584 25.8347 45.0584C26.8574 45.0584 27.7294 45.2813 28.4506 45.7271C29.1827 46.1627 29.7209 46.725 30.0654 47.4139L29.1773 47.9306C28.9297 47.4545 28.6175 47.0796 28.2407 46.8061C27.8639 46.5224 27.4602 46.3198 27.0296 46.1982C26.6098 46.0766 26.19 46.0158 25.7701 46.0158C25.0812 46.0158 24.4729 46.1475 23.9454 46.4109C23.4179 46.6642 22.9712 47.0087 22.6052 47.4443C22.2499 47.8698 21.9808 48.3511 21.7978 48.888C21.6148 49.4149 21.5233 49.9518 21.5233 50.4989C21.5233 51.0966 21.6309 51.6691 21.8462 52.2161C22.0615 52.7632 22.363 53.2495 22.7505 53.675C23.1381 54.0904 23.5902 54.4248 24.1069 54.678C24.6344 54.9212 25.205 55.0428 25.8186 55.0428C26.2492 55.0428 26.6905 54.9718 27.1427 54.83C27.5948 54.6882 28.0146 54.4703 28.4022 54.1765C28.8005 53.8827 29.1181 53.5028 29.3549 53.0368L30.2915 53.4927C30.0546 54.0296 29.6886 54.4855 29.1934 54.8604C28.6982 55.2353 28.1438 55.5189 27.5302 55.7114C26.9274 55.9039 26.3353 56.0002 25.754 56.0002C24.9681 56.0002 24.2469 55.8431 23.5902 55.5291C22.9335 55.2049 22.363 54.7794 21.8785 54.2525C21.4049 53.7156 21.0389 53.1178 20.7805 52.4593C20.5221 51.7906 20.393 51.1169 20.393 50.4381Z" fill="white"/>
<path d="M51.2276 45.1192V55.909H50.1134V50.8636H43.3153V55.909H42.1849V45.1192H43.3153V49.9214H50.1134V45.1192H51.2276Z" fill="white"/>
<path d="M68.6878 55.985C67.8804 55.985 67.1484 55.833 66.4917 55.5291C65.835 55.2251 65.2698 54.8148 64.7962 54.2981C64.3225 53.7713 63.9565 53.1837 63.6981 52.5353C63.4398 51.8767 63.3106 51.203 63.3106 50.5141C63.3106 49.7948 63.4452 49.1109 63.7143 48.4625C63.9834 47.804 64.3602 47.2214 64.8446 46.7149C65.3398 46.1982 65.9158 45.7929 66.5724 45.4991C67.2291 45.1952 67.9396 45.0432 68.7039 45.0432C69.5113 45.0432 70.2433 45.2002 70.9 45.5143C71.5567 45.8284 72.1164 46.2488 72.5793 46.7757C73.053 47.3025 73.419 47.8901 73.6774 48.5385C73.9357 49.1869 74.0649 49.8505 74.0649 50.5293C74.0649 51.2486 73.9304 51.9375 73.6612 52.5961C73.3921 53.2445 73.0153 53.827 72.5309 54.3437C72.0465 54.8503 71.4759 55.2505 70.8192 55.5443C70.1626 55.8381 69.4521 55.985 68.6878 55.985ZM64.4409 50.5141C64.4409 51.1017 64.5432 51.6691 64.7477 52.2161C64.9523 52.7531 65.2429 53.2343 65.6197 53.6598C65.9965 54.0752 66.4432 54.4096 66.96 54.6628C67.4875 54.906 68.0634 55.0276 68.6878 55.0276C69.3444 55.0276 69.9311 54.9009 70.4479 54.6476C70.9753 54.3842 71.4221 54.0398 71.7881 53.6143C72.1649 53.1786 72.4502 52.6923 72.6439 52.1554C72.8377 51.6184 72.9346 51.0713 72.9346 50.5141C72.9346 49.9265 72.8323 49.3642 72.6278 48.8272C72.4232 48.2903 72.1272 47.809 71.7397 47.3835C71.3629 46.958 70.9161 46.6237 70.3994 46.3805C69.8827 46.1374 69.3121 46.0158 68.6878 46.0158C68.0419 46.0158 67.4552 46.1425 66.9277 46.3957C66.4109 46.649 65.9642 46.9935 65.5874 47.4291C65.2214 47.8546 64.9361 48.3359 64.7316 48.8728C64.5378 49.4098 64.4409 49.9569 64.4409 50.5141Z" fill="white"/>
<path d="M90.7773 55.985C89.97 55.985 89.2379 55.833 88.5813 55.5291C87.9246 55.2251 87.3594 54.8148 86.8858 54.2981C86.4121 53.7713 86.0461 53.1837 85.7877 52.5353C85.5294 51.8767 85.4002 51.203 85.4002 50.5141C85.4002 49.7948 85.5347 49.1109 85.8039 48.4625C86.073 47.804 86.4498 47.2214 86.9342 46.7149C87.4294 46.1982 88.0053 45.7929 88.662 45.4991C89.3187 45.1952 90.0292 45.0432 90.7935 45.0432C91.6009 45.0432 92.3329 45.2002 92.9896 45.5143C93.6462 45.8284 94.206 46.2488 94.6689 46.7757C95.1426 47.3025 95.5086 47.8901 95.767 48.5385C96.0253 49.1869 96.1545 49.8505 96.1545 50.5293C96.1545 51.2486 96.0199 51.9375 95.7508 52.5961C95.4817 53.2445 95.1049 53.827 94.6205 54.3437C94.136 54.8503 93.5655 55.2505 92.9088 55.5443C92.2522 55.8381 91.5417 55.985 90.7773 55.985ZM86.5305 50.5141C86.5305 51.1017 86.6328 51.6691 86.8373 52.2161C87.0419 52.7531 87.3325 53.2343 87.7093 53.6598C88.0861 54.0752 88.5328 54.4096 89.0495 54.6628C89.577 54.906 90.153 55.0276 90.7773 55.0276C91.434 55.0276 92.0207 54.9009 92.5374 54.6476C93.0649 54.3842 93.5117 54.0398 93.8777 53.6143C94.2545 53.1786 94.5397 52.6923 94.7335 52.1554C94.9273 51.6184 95.0242 51.0713 95.0242 50.5141C95.0242 49.9265 94.9219 49.3642 94.7174 48.8272C94.5128 48.2903 94.2168 47.809 93.8293 47.3835C93.4525 46.958 93.0057 46.6237 92.489 46.3805C91.9723 46.1374 91.4017 46.0158 90.7773 46.0158C90.1314 46.0158 89.5447 46.1425 89.0173 46.3957C88.5005 46.649 88.0538 46.9935 87.677 47.4291C87.311 47.8546 87.0257 48.3359 86.8212 48.8728C86.6274 49.4098 86.5305 49.9569 86.5305 50.5141Z" fill="white"/>
<path d="M108.249 55.909V45.1192H109.379V54.9668H116V55.909H108.249Z" fill="white"/>
<path d="M13.4227 18.7481C13.2909 18.624 13.0459 18.4556 12.688 18.2428C12.3489 18.0301 11.925 17.8262 11.4164 17.6312C10.9266 17.4361 10.3897 17.2677 9.80565 17.1259C9.22165 16.9663 8.62822 16.8865 8.02538 16.8865C6.9704 16.8865 6.16974 17.0727 5.62341 17.445C5.09593 17.8173 4.83218 18.3403 4.83218 19.0141C4.83218 19.5282 5.00173 19.936 5.34083 20.2374C5.67993 20.5388 6.18858 20.7959 6.86678 21.0087C7.54498 21.2214 8.39273 21.4519 9.41004 21.7001C10.7288 22.0015 11.8685 22.3739 12.8293 22.8171C13.8089 23.2426 14.5531 23.81 15.0617 24.5191C15.5892 25.2106 15.8529 26.1326 15.8529 27.285C15.8529 28.2956 15.6551 29.1643 15.2595 29.8912C14.8639 30.6004 14.3176 31.1766 13.6205 31.6199C12.9235 32.0631 12.1323 32.3911 11.2468 32.6039C10.3614 32.7989 9.41946 32.8964 8.42099 32.8964C7.42253 32.8964 6.42407 32.7989 5.42561 32.6039C4.42714 32.4089 3.46636 32.1341 2.54325 31.7795C1.62015 31.4071 0.772395 30.9639 0 30.4497L1.72376 27.285C1.89331 27.4445 2.19473 27.6573 2.62803 27.9233C3.06132 28.1715 3.58881 28.4285 4.2105 28.6945C4.83218 28.9427 5.51038 29.1555 6.2451 29.3328C6.97982 29.5101 7.72395 29.5987 8.47751 29.5987C9.53249 29.5987 10.3331 29.4303 10.8795 29.0934C11.4258 28.7565 11.699 28.2778 11.699 27.6573C11.699 27.09 11.4823 26.6467 11.049 26.3276C10.6157 26.0084 10.0129 25.7336 9.24049 25.5031C8.46809 25.2549 7.5544 24.989 6.49942 24.7053C5.23722 24.3684 4.18224 23.9961 3.33449 23.5883C2.48674 23.1628 1.85563 22.6309 1.44118 21.9927C1.02672 21.3544 0.819493 20.5566 0.819493 19.5992C0.819493 18.3049 1.13975 17.2234 1.78028 16.3546C2.43964 15.4681 3.32507 14.8033 4.43656 14.36C5.54806 13.8991 6.78201 13.6686 8.13841 13.6686C9.08036 13.6686 9.96578 13.7661 10.7947 13.9611C11.6424 14.1561 12.4337 14.4132 13.1684 14.7324C13.9031 15.0515 14.5625 15.3972 15.1465 15.7695L13.4227 18.7481Z" fill="white"/>
<path d="M25.3274 32.9496C24.1218 32.9496 23.0385 32.7635 22.0777 32.3911C21.1169 32.0011 20.2975 31.4692 19.6193 30.7955C18.9411 30.104 18.4136 29.3239 18.0368 28.4551C17.6788 27.5864 17.4999 26.6733 17.4999 25.7159C17.4999 24.4039 17.8107 23.2071 18.4324 22.1256C19.0729 21.0264 19.9772 20.1488 21.1452 19.4928C22.3132 18.8368 23.6979 18.5088 25.2992 18.5088C26.9005 18.5088 28.2757 18.8368 29.4249 19.4928C30.5741 20.1488 31.4313 21.0087 31.9964 22.0724L28.2946 23.1362C27.9743 22.6221 27.5504 22.232 27.0229 21.9661C26.4955 21.6824 25.9114 21.5406 25.2709 21.5406C24.555 21.5406 23.8957 21.7179 23.2928 22.0724C22.7088 22.4093 22.2473 22.8969 21.9082 23.5351C21.5691 24.1557 21.3995 24.8826 21.3995 25.7159C21.3995 26.5315 21.5691 27.2584 21.9082 27.8967C22.2661 28.5172 22.7371 29.0136 23.3211 29.386C23.9051 29.7405 24.555 29.9178 25.2709 29.9178C25.7231 29.9178 26.1469 29.8469 26.5426 29.7051C26.957 29.5632 27.3244 29.3682 27.6446 29.12C27.9649 28.8718 28.2004 28.5881 28.3511 28.269L32.0529 29.3328C31.7138 30.0242 31.2146 30.6448 30.5552 31.1944C29.9147 31.744 29.1517 32.1784 28.2663 32.4975C27.3997 32.7989 26.4201 32.9496 25.3274 32.9496Z" fill="white"/>
<path d="M34.3829 32.6837V18.7481H38.1695V32.6837H34.3829ZM34.3829 16.8067V13.2697H38.1695V16.8067H34.3829Z" fill="white"/>
<path d="M82.2804 32.6839H78.4938V24.8651C78.4938 23.7482 78.2865 22.9326 77.8721 22.4184C77.4576 21.9043 76.883 21.6472 76.1483 21.6472C75.6397 21.6472 75.1216 21.7713 74.5941 22.0195C74.0855 22.2677 73.6239 22.6135 73.2094 23.0567C72.795 23.4822 72.4936 23.9786 72.3052 24.546V32.6839H68.5186V18.7484H71.9378V21.3281C72.3146 20.7252 72.795 20.2199 73.379 19.8122C73.963 19.3867 74.6318 19.0675 75.3853 18.8548C76.1577 18.6243 76.9678 18.509 77.8156 18.509C78.7387 18.509 79.4922 18.6686 80.0762 18.9877C80.6791 19.2891 81.1312 19.7058 81.4326 20.2377C81.7529 20.7518 81.9695 21.3369 82.0826 21.9929C82.2144 22.6489 82.2804 23.3138 82.2804 23.9875V32.6839Z" fill="white"/>
<path d="M92.468 32.9499C91.2623 32.9499 90.179 32.7637 89.2183 32.3914C88.2575 32.0013 87.438 31.4694 86.7598 30.7957C86.0816 30.1043 85.5541 29.3241 85.1773 28.4554C84.8194 27.5866 84.6404 26.6736 84.6404 25.7162C84.6404 24.4042 84.9512 23.2074 85.5729 22.1259C86.2134 21.0267 87.1177 20.149 88.2857 19.493C89.4537 18.837 90.8384 18.509 92.4397 18.509C94.041 18.509 95.4163 18.837 96.5654 19.493C97.7146 20.149 98.5718 21.0089 99.1369 22.0727L95.4351 23.1365C95.1148 22.6223 94.691 22.2323 94.1635 21.9663C93.636 21.6826 93.052 21.5408 92.4114 21.5408C91.6956 21.5408 91.0362 21.7181 90.4334 22.0727C89.8494 22.4096 89.3878 22.8971 89.0487 23.5354C88.7096 24.1559 88.5401 24.8829 88.5401 25.7162C88.5401 26.5317 88.7096 27.2586 89.0487 27.8969C89.4066 28.5174 89.8776 29.0139 90.4616 29.3862C91.0456 29.7408 91.6956 29.9181 92.4114 29.9181C92.8636 29.9181 93.2875 29.8472 93.6831 29.7053C94.0975 29.5635 94.4649 29.3685 94.7852 29.1203C95.1054 28.872 95.3409 28.5884 95.4916 28.2692L99.1935 29.333C98.8544 30.0245 98.3551 30.645 97.6958 31.1946C97.0552 31.7443 96.2923 32.1786 95.4068 32.4978C94.5402 32.7992 93.5606 32.9499 92.468 32.9499Z" fill="white"/>
<path d="M108.252 32.9499C107.065 32.9499 105.992 32.7637 105.031 32.3914C104.07 32.0013 103.251 31.4783 102.572 30.8223C101.894 30.1486 101.367 29.3862 100.99 28.5352C100.632 27.6664 100.453 26.7533 100.453 25.7959C100.453 24.4662 100.764 23.2517 101.385 22.1525C102.026 21.0532 102.93 20.1756 104.098 19.5196C105.285 18.8459 106.679 18.509 108.281 18.509C109.901 18.509 111.285 18.8459 112.434 19.5196C113.584 20.1756 114.46 21.0532 115.063 22.1525C115.684 23.234 115.995 24.4042 115.995 25.663C115.995 25.8757 115.986 26.0973 115.967 26.3278C115.948 26.5406 115.929 26.7179 115.91 26.8597H104.466C104.541 27.5689 104.758 28.1894 105.116 28.7213C105.492 29.2532 105.963 29.661 106.528 29.9447C107.112 30.2106 107.734 30.3436 108.394 30.3436C109.147 30.3436 109.854 30.1752 110.513 29.8383C111.191 29.4837 111.653 29.0227 111.898 28.4554L115.147 29.3064C114.789 30.0156 114.271 30.645 113.593 31.1946C112.934 31.7443 112.152 32.1786 111.248 32.4978C110.343 32.7992 109.345 32.9499 108.252 32.9499ZM104.381 24.5992H112.124C112.048 23.89 111.832 23.2783 111.474 22.7642C111.135 22.2323 110.682 21.8245 110.117 21.5408C109.552 21.2394 108.921 21.0887 108.224 21.0887C107.546 21.0887 106.924 21.2394 106.359 21.5408C105.813 21.8245 105.36 22.2323 105.003 22.7642C104.663 23.2783 104.456 23.89 104.381 24.5992Z" fill="white"/>
<rect width="13.8445" height="2.58072" rx="1.29036" transform="matrix(0.72822 -0.685343 0.72822 0.685343 43.8135 21.1245)" fill="white"/>
<rect width="13.8445" height="2.58072" rx="1.29036" transform="matrix(0.728219 -0.685344 0.728219 0.685344 46.3906 25.0266)" fill="white"/>
<rect width="13.8445" height="2.58072" rx="1.29036" transform="matrix(0.728219 -0.685344 0.728219 0.685344 48.9678 28.928)" fill="white"/>
<path d="M53.7142 7.95568C53.7475 8.23353 57.009 9.41524 62.3537 8.75217C62.3982 8.74665 62.4301 8.7079 62.4238 8.66613L61.8692 5.01119C61.8631 4.97115 61.8238 4.94267 61.781 4.94647C56.4122 5.42328 53.6809 7.67774 53.7142 7.95568Z" fill="white"/>
<path d="M64.8237 18.6199C64.525 18.5882 63.2546 15.4824 63.9676 10.393C63.9735 10.3511 64.0147 10.321 64.0591 10.327L67.99 10.8553C68.0325 10.8611 68.0628 10.898 68.0587 10.9383C67.5463 16.0507 65.1225 18.6516 64.8237 18.6199Z" fill="white"/>
<path fill-rule="evenodd" clip-rule="evenodd" d="M56.6477 9.06537C66.0409 -0.0705815 72.6739 -0.3856 73.2626 0.168409C73.8513 0.722418 73.5165 6.96485 63.809 15.805C63.62 15.9771 63.3152 15.9775 63.1292 15.8025L56.6503 9.7051C56.4644 9.53011 56.4648 9.24321 56.6477 9.06537ZM66.5763 6.46108C67.4252 7.25997 68.8617 7.20325 69.7849 6.33441C70.7081 5.46557 70.7684 4.11361 69.9195 3.31473C69.0707 2.51584 67.6341 2.57255 66.7109 3.4414C65.7877 4.31024 65.7275 5.6622 66.5763 6.46108Z" fill="white"/>
</svg>
