<svg width="80" height="80" viewBox="0 0 80 80" fill="none" xmlns="http://www.w3.org/2000/svg">
<path d="M60.7502 25C59.6457 25 58.7502 25.8954 58.7502 27V28C58.7502 29.1046 59.6457 30 60.7502 30H68.9646L40.7894 58.1753C40.0084 58.9564 38.7421 58.9564 37.961 58.1753L29.5394 49.7537C28.7584 48.9727 27.4921 48.9727 26.711 49.7537L13.3966 63.068C12.6156 63.849 12.6156 65.1154 13.3966 65.8964L14.1038 66.6036C14.8849 67.3846 16.1512 67.3846 16.9323 66.6036L26.711 56.8247C27.4921 56.0436 28.7584 56.0436 29.5395 56.8247L37.961 65.2463C38.7421 66.0273 40.0084 66.0273 40.7894 65.2463L72.5002 33.5356V41.75C72.5002 42.8546 73.3957 43.75 74.5002 43.75H75.5002C76.6048 43.75 77.5002 42.8546 77.5002 41.75V26C77.5002 25.4477 77.0525 25 76.5002 25H60.7502Z" fill="#00B2FF"/>
<path d="M7.5 18.25C7.5 17.1454 6.60457 16.25 5.5 16.25H4.5C3.39543 16.25 2.5 17.1454 2.5 18.25V75.5C2.5 76.6046 3.39543 77.5 4.5 77.5H75.5C76.6046 77.5 77.5 76.6046 77.5 75.5V74.5C77.5 73.3954 76.6046 72.5 75.5 72.5H9.5C8.39543 72.5 7.5 71.6046 7.5 70.5V18.25Z" fill="#00B2FF"/>
</svg>
