<svg width="80" height="80" viewBox="0 0 80 80" fill="none" xmlns="http://www.w3.org/2000/svg">
<path fill-rule="evenodd" clip-rule="evenodd" d="M61.3894 71.1112C63.9679 71.1112 66.4408 70.0869 68.2641 68.2637C70.0874 66.4404 71.1117 63.9675 71.1117 61.389C71.1117 58.8105 70.0874 56.3376 68.2641 54.5144C66.4408 52.6911 63.9679 51.6668 61.3894 51.6668C58.8109 51.6668 56.3381 52.6911 54.5148 54.5144C52.6915 56.3376 51.6672 58.8105 51.6672 61.389C51.6672 63.9675 52.6915 66.4404 54.5148 68.2637C56.3381 70.0869 58.8109 71.1112 61.3894 71.1112ZM61.3894 75.0001C64.9993 75.0001 68.4614 73.5661 71.0139 71.0135C73.5665 68.4609 75.0005 64.9989 75.0005 61.389C75.0005 57.7791 73.5665 54.3171 71.0139 51.7645C68.4614 49.2119 64.9993 47.7779 61.3894 47.7779C57.7795 47.7779 54.3175 49.2119 51.7649 51.7645C49.2123 54.3171 47.7783 57.7791 47.7783 61.389C47.7783 64.9989 49.2123 68.4609 51.7649 71.0135C54.3175 73.5661 57.7795 75.0001 61.3894 75.0001Z" fill="#00B2FF"/>
<path fill-rule="evenodd" clip-rule="evenodd" d="M61.3894 54.5834C61.9051 54.5834 62.3997 54.7882 62.7644 55.1529C63.129 55.5175 63.3339 56.0121 63.3339 56.5278V60.5839L64.7086 61.9586C65.0628 62.3254 65.2588 62.8165 65.2544 63.3264C65.2499 63.8362 65.0454 64.3239 64.6849 64.6844C64.3244 65.0449 63.8367 65.2494 63.3269 65.2538C62.8171 65.2583 62.3259 65.0623 61.9592 64.7081L59.445 62.1939V56.5278C59.445 56.0121 59.6498 55.5175 60.0145 55.1529C60.3792 54.7882 60.8737 54.5834 61.3894 54.5834ZM20.5561 38.0556H16.6672V41.9445H20.5561V38.0556ZM16.6672 34.1667C15.6358 34.1667 14.6467 34.5764 13.9174 35.3057C13.188 36.035 12.7783 37.0242 12.7783 38.0556V41.9445C12.7783 42.9759 13.188 43.965 13.9174 44.6943C14.6467 45.4236 15.6358 45.8334 16.6672 45.8334H20.5561C21.5875 45.8334 22.5766 45.4236 23.306 44.6943C24.0353 43.965 24.445 42.9759 24.445 41.9445V38.0556C24.445 37.0242 24.0353 36.035 23.306 35.3057C22.5766 34.5764 21.5875 34.1667 20.5561 34.1667H16.6672ZM36.1117 38.0556H32.2228V41.9445H36.1117V38.0556ZM32.2228 34.1667C31.1914 34.1667 30.2022 34.5764 29.4729 35.3057C28.7436 36.035 28.3339 37.0242 28.3339 38.0556V41.9445C28.3339 42.9759 28.7436 43.965 29.4729 44.6943C30.2022 45.4236 31.1914 45.8334 32.2228 45.8334H36.1117C37.1431 45.8334 38.1322 45.4236 38.8615 44.6943C39.5908 43.965 40.0005 42.9759 40.0005 41.9445V38.0556C40.0005 37.0242 39.5908 36.035 38.8615 35.3057C38.1322 34.5764 37.1431 34.1667 36.1117 34.1667H32.2228ZM51.6672 38.0556H47.7783V41.9445H51.6672V38.0556ZM47.7783 34.1667C46.7469 34.1667 45.7578 34.5764 45.0285 35.3057C44.2992 36.035 43.8894 37.0242 43.8894 38.0556V41.9445C43.8894 42.9759 44.2992 43.965 45.0285 44.6943C45.7578 45.4236 46.7469 45.8334 47.7783 45.8334H51.6672C52.6986 45.8334 53.6878 45.4236 54.4171 44.6943C55.1464 43.965 55.5561 42.9759 55.5561 41.9445V38.0556C55.5561 37.0242 55.1464 36.035 54.4171 35.3057C53.6878 34.5764 52.6986 34.1667 51.6672 34.1667H47.7783ZM20.5561 53.6111H16.6672V57.5H20.5561V53.6111ZM16.6672 49.7222C15.6358 49.7222 14.6467 50.132 13.9174 50.8613C13.188 51.5906 12.7783 52.5797 12.7783 53.6111V57.5C12.7783 58.5314 13.188 59.5206 13.9174 60.2499C14.6467 60.9792 15.6358 61.3889 16.6672 61.3889H20.5561C21.5875 61.3889 22.5766 60.9792 23.306 60.2499C24.0353 59.5206 24.445 58.5314 24.445 57.5V53.6111C24.445 52.5797 24.0353 51.5906 23.306 50.8613C22.5766 50.132 21.5875 49.7222 20.5561 49.7222H16.6672ZM36.1117 53.6111H32.2228V57.5H36.1117V53.6111ZM32.2228 49.7222C31.1914 49.7222 30.2022 50.132 29.4729 50.8613C28.7436 51.5906 28.3339 52.5797 28.3339 53.6111V57.5C28.3339 58.5314 28.7436 59.5206 29.4729 60.2499C30.2022 60.9792 31.1914 61.3889 32.2228 61.3889H36.1117C37.1431 61.3889 38.1322 60.9792 38.8615 60.2499C39.5908 59.5206 40.0005 58.5314 40.0005 57.5V53.6111C40.0005 52.5797 39.5908 51.5906 38.8615 50.8613C38.1322 50.132 37.1431 49.7222 36.1117 49.7222H32.2228Z" fill="#00B2FF"/>
<path fill-rule="evenodd" clip-rule="evenodd" d="M8.88889 16.6666C8.88889 16.1509 9.09375 15.6564 9.4584 15.2917C9.82306 14.9271 10.3176 14.7222 10.8333 14.7222H20.5556V10.8333H10.8333C9.28624 10.8333 7.80251 11.4479 6.70854 12.5419C5.61458 13.6358 5 15.1196 5 16.6666V63.3333C5 64.8804 5.61458 66.3641 6.70854 67.4581C7.80251 68.5521 9.28624 69.1666 10.8333 69.1666H50.2181C49.3888 67.9789 48.7553 66.666 48.3417 65.2778H10.8333C10.3176 65.2778 9.82306 65.0729 9.4584 64.7082C9.09375 64.3436 8.88889 63.849 8.88889 63.3333V16.6666ZM59.4444 47.9139C60.7342 47.7294 62.0436 47.7294 63.3333 47.9139V16.6666C63.3333 15.1196 62.7187 13.6358 61.6248 12.5419C60.5308 11.4479 59.0471 10.8333 57.5 10.8333H51.6667V14.7222H57.5C58.0157 14.7222 58.5103 14.9271 58.8749 15.2917C59.2396 15.6564 59.4444 16.1509 59.4444 16.6666V47.9139ZM24.4444 14.7222H44.9836V10.8333H24.4444V14.7222Z" fill="#00B2FF"/>
<path fill-rule="evenodd" clip-rule="evenodd" d="M63.3331 28.3334H8.88867V24.4445H63.3331V28.3334Z" fill="#00B2FF"/>
<path d="M16.667 6.94444C16.667 6.42875 16.8719 5.93417 17.2365 5.56951C17.6012 5.20486 18.0957 5 18.6114 5C19.1271 5 19.6217 5.20486 19.9864 5.56951C20.351 5.93417 20.5559 6.42875 20.5559 6.94444V16.6667C20.5559 17.1824 20.351 17.6769 19.9864 18.0416C19.6217 18.4063 19.1271 18.6111 18.6114 18.6111C18.0957 18.6111 17.6012 18.4063 17.2365 18.0416C16.8719 17.6769 16.667 17.1824 16.667 16.6667V6.94444ZM43.8892 6.94444C43.8892 6.42875 44.0941 5.93417 44.4587 5.56951C44.8234 5.20486 45.318 5 45.8337 5C46.3494 5 46.8439 5.20486 47.2086 5.56951C47.5732 5.93417 47.7781 6.42875 47.7781 6.94444V16.6667C47.7781 17.1824 47.5732 17.6769 47.2086 18.0416C46.8439 18.4063 46.3494 18.6111 45.8337 18.6111C45.318 18.6111 44.8234 18.4063 44.4587 18.0416C44.0941 17.6769 43.8892 17.1824 43.8892 16.6667V6.94444Z" fill="#00B2FF"/>
</svg>
